<?xml version="1.0" encoding="utf-8"?>
<!-- Generator: Adobe Illustrator 22.0.1, SVG Export Plug-In . SVG Version: 6.00 Build 0)  -->
<svg version="1.1" id="Capa_1" xmlns="http://www.w3.org/2000/svg" xmlns:xlink="http://www.w3.org/1999/xlink" x="0px" y="0px"
	 viewBox="0 0 23 30" style="enable-background:new 0 0 23 30;" xml:space="preserve">
<style type="text/css">
	.st0{fill:#FFFFFF;}
</style>
<g>
	<g>
		<g>
			<g>
				<path class="st0" d="M21.33,30H1.67C0.75,30,0,29.25,0,28.34V3.79c0-0.92,0.75-1.66,1.67-1.66h19.66c0.92,0,1.67,0.75,1.67,1.66
					v24.55C23,29.25,22.25,30,21.33,30z M1.67,2.99c-0.45,0-0.81,0.36-0.81,0.8v24.55c0,0.44,0.36,0.8,0.81,0.8h19.66
					c0.45,0,0.81-0.36,0.81-0.8V3.79c0-0.44-0.36-0.8-0.81-0.8H1.67z"/>
			</g>
		</g>
	</g>
</g>
<g>
	<g>
		<g>
			<g>
				<path class="st0" d="M9.03,18.49H3.78c-0.24,0-0.43-0.19-0.43-0.43s0.19-0.43,0.43-0.43h5.25c0.24,0,0.43,0.19,0.43,0.43
					S9.27,18.49,9.03,18.49z"/>
			</g>
		</g>
	</g>
</g>
<g>
	<g>
		<g>
			<g>
				<path class="st0" d="M19.22,21.88H3.78c-0.24,0-0.43-0.19-0.43-0.43c0-0.24,0.19-0.43,0.43-0.43h15.44
					c0.24,0,0.43,0.19,0.43,0.43C19.65,21.69,19.46,21.88,19.22,21.88z"/>
			</g>
		</g>
	</g>
</g>
<g>
	<g>
		<g>
			<g>
				<path class="st0" d="M19.22,25.28H3.78c-0.24,0-0.43-0.19-0.43-0.43c0-0.24,0.19-0.43,0.43-0.43h15.44
					c0.24,0,0.43,0.19,0.43,0.43C19.65,25.09,19.46,25.28,19.22,25.28z"/>
			</g>
		</g>
	</g>
</g>
<g>
	<g>
		<g>
			<path class="st0" d="M18.52,2.99H4.48c-0.24,0-0.43-0.19-0.43-0.43V2.43C4.05,1.09,5.14,0,6.49,0h10.02
				c1.35,0,2.44,1.09,2.44,2.43v0.12C18.95,2.79,18.76,2.99,18.52,2.99z M4.94,2.13h13.12c-0.14-0.72-0.78-1.27-1.55-1.27H6.49
				C5.72,0.86,5.08,1.41,4.94,2.13z"/>
		</g>
	</g>
</g>
</svg>
