<?xml version="1.0" encoding="utf-8"?>
<!-- Generator: Adobe Illustrator 22.0.1, SVG Export Plug-In . SVG Version: 6.00 Build 0)  -->
<svg version="1.1" id="Capa_1" xmlns="http://www.w3.org/2000/svg" xmlns:xlink="http://www.w3.org/1999/xlink" x="0px" y="0px"
	 viewBox="0 0 37 26" style="enable-background:new 0 0 37 26;" xml:space="preserve">
<style type="text/css">
	.st0{fill:none;stroke:#FFFFFF;stroke-width:0.75;stroke-miterlimit:10;}
	.st1{fill:#FFFFFF;}
</style>
<path class="st0" d="M33.17,8.53l-10.5-1.76c-0.27-0.05-0.53-0.13-0.78-0.24l-5.67-2.6c-1.61-0.74-3.53-0.05-4.29,1.55l0,0
	c-0.76,1.59-0.12,3.49,1.44,4.29l2.18,1.13c0.8,0.41,1.68,0.63,2.57,0.63h14.81c0.73,0,1.36-0.53,1.49-1.25l0,0
	C34.57,9.45,34,8.66,33.17,8.53z"/>
<path class="st1" d="M8.02,0.24c-1.61,0-2.92,1.31-2.92,2.92s1.31,2.92,2.92,2.92s2.92-1.31,2.92-2.92S9.64,0.24,8.02,0.24z
	 M8.02,5.41c-1.24,0-2.25-1.01-2.25-2.25c0-1.24,1.01-2.25,2.25-2.25c1.24,0,2.25,1.01,2.25,2.25C10.27,4.4,9.26,5.41,8.02,5.41z"/>
<path class="st1" d="M0.09,5.1v20.3c0,0.37,0.3,0.67,0.67,0.67h2.29c0.37,0,0.67-0.3,0.67-0.67V5.1c0-0.37-0.3-0.67-0.67-0.67H0.76
	C0.39,4.44,0.09,4.73,0.09,5.1z M2.49,25.25H1.32c-0.37,0-0.67-0.3-0.67-0.67V5.92c0-0.37,0.3-0.67,0.67-0.67h1.16
	c0.37,0,0.67,0.3,0.67,0.67v18.66C3.15,24.95,2.85,25.25,2.49,25.25z"/>
<path class="st1" d="M3.18,18.6h33.05v-2.39c0-1.23-1-2.24-2.24-2.24H3.18V18.6z M35.62,16.83v0.98L3.72,17.76v-3.22l29.68,0.05
	C34.63,14.59,35.62,15.59,35.62,16.83z"/>
<polygon class="st1" points="15.02,14.46 3.15,7.61 3.51,7 15.7,14.04 "/>
<path class="st1" d="M32.6,18.09v6.64c0,0.69,0.56,1.25,1.25,1.25h1.13c0.69,0,1.25-0.56,1.25-1.25v-6.64H32.6z M34.41,25.4
	L34.41,25.4c-0.69,0-1.25-0.56-1.25-1.25V18.6h2.5v5.55C35.66,24.84,35.11,25.4,34.41,25.4z"/>
</svg>
