<?xml version="1.0" encoding="utf-8"?>
<!-- Generator: Adobe Illustrator 22.0.1, SVG Export Plug-In . SVG Version: 6.00 Build 0)  -->
<svg version="1.1" id="Capa_1" xmlns="http://www.w3.org/2000/svg" xmlns:xlink="http://www.w3.org/1999/xlink" x="0px" y="0px"
	 viewBox="0 0 32 28" style="enable-background:new 0 0 32 28;" xml:space="preserve">
<style type="text/css">
	.st0{fill:#FFFFFF;}
</style>
<g>
	<g>
		<g>
			<path class="st0" d="M30.69,28H1.31C0.59,28,0,27.4,0,26.67V8.97C0,8.7,0.21,8.49,0.48,8.49h31.05C31.79,8.49,32,8.7,32,8.97
				v17.69C32,27.4,31.41,28,30.69,28z M0.95,9.46v17.21c0,0.2,0.16,0.36,0.36,0.36h29.38c0.2,0,0.36-0.16,0.36-0.36V9.46H0.95z"/>
		</g>
	</g>
</g>
<g>
	<g>
		<g>
			<path class="st0" d="M31.52,9.46H0.48C0.21,9.46,0,9.24,0,8.97V4.31c0-0.74,0.59-1.33,1.31-1.33h3.72c0.26,0,0.48,0.22,0.48,0.49
				v0.82c0,0.68,0.54,1.23,1.2,1.23s1.2-0.55,1.2-1.23V3.46c0-0.27,0.21-0.49,0.48-0.49h15.21c0.26,0,0.48,0.22,0.48,0.49v0.82
				c0,0.68,0.54,1.23,1.2,1.23c0.66,0,1.2-0.55,1.2-1.23V3.46c0-0.27,0.21-0.49,0.48-0.49h3.72c0.72,0,1.31,0.6,1.31,1.33v4.66
				C32,9.24,31.79,9.46,31.52,9.46z M0.95,8.49h30.09V4.31c0-0.2-0.16-0.36-0.36-0.36h-3.25v0.33c0,1.21-0.97,2.2-2.16,2.2
				c-1.19,0-2.16-0.98-2.16-2.2V3.95H8.87v0.33c0,1.21-0.97,2.2-2.16,2.2c-1.19,0-2.16-0.98-2.16-2.2V3.95H1.31
				c-0.2,0-0.36,0.16-0.36,0.36V8.49z"/>
		</g>
	</g>
</g>
<g>
	<g>
		<g>
			<path class="st0" d="M6.71,6.48c-1.19,0-2.16-0.98-2.16-2.2V2.2C4.56,0.98,5.52,0,6.71,0C7.9,0,8.87,0.98,8.87,2.2v2.09
				C8.87,5.49,7.9,6.48,6.71,6.48z M6.71,0.97c-0.66,0-1.2,0.55-1.2,1.23v2.09c0,0.68,0.54,1.23,1.2,1.23s1.2-0.55,1.2-1.23V2.2
				C7.92,1.52,7.38,0.97,6.71,0.97z"/>
		</g>
	</g>
</g>
<g>
	<g>
		<g>
			<path class="st0" d="M25.29,6.48c-1.19,0-2.16-0.98-2.16-2.2V2.2c0-1.21,0.97-2.2,2.16-2.2c1.19,0,2.16,0.98,2.16,2.2v2.09
				C27.44,5.49,26.47,6.48,25.29,6.48z M25.29,0.97c-0.66,0-1.2,0.55-1.2,1.23v2.09c0,0.68,0.54,1.23,1.2,1.23
				c0.66,0,1.2-0.55,1.2-1.23V2.2C26.49,1.52,25.95,0.97,25.29,0.97z"/>
		</g>
	</g>
</g>
<g>
	<g>
		<g>
			<path class="st0" d="M6.37,14.91H3.22c-0.26,0-0.48-0.22-0.48-0.48v-2.81c0-0.27,0.21-0.49,0.48-0.49h3.14
				c0.26,0,0.48,0.22,0.48,0.49v2.81C6.84,14.69,6.63,14.91,6.37,14.91z M3.7,13.94h2.19V12.1H3.7V13.94z"/>
		</g>
	</g>
</g>
<g>
	<g>
		<g>
			<path class="st0" d="M11.93,14.91H8.78c-0.26,0-0.48-0.22-0.48-0.48v-2.81c0-0.27,0.21-0.49,0.48-0.49h3.14
				c0.26,0,0.48,0.22,0.48,0.49v2.81C12.4,14.69,12.19,14.91,11.93,14.91z M9.26,13.94h2.19V12.1H9.26V13.94z"/>
		</g>
	</g>
</g>
<g>
	<g>
		<g>
			<path class="st0" d="M17.48,14.91h-3.14c-0.26,0-0.48-0.22-0.48-0.48v-2.81c0-0.27,0.21-0.49,0.48-0.49h3.14
				c0.26,0,0.48,0.22,0.48,0.49v2.81C17.96,14.69,17.75,14.91,17.48,14.91z M14.81,13.94h2.19V12.1h-2.19V13.94z"/>
		</g>
	</g>
</g>
<g>
	<g>
		<g>
			<path class="st0" d="M23.04,14.91H19.9c-0.26,0-0.48-0.22-0.48-0.48v-2.81c0-0.27,0.21-0.49,0.48-0.49h3.14
				c0.26,0,0.48,0.22,0.48,0.49v2.81C23.52,14.69,23.3,14.91,23.04,14.91z M20.37,13.94h2.19V12.1h-2.19V13.94z"/>
		</g>
	</g>
</g>
<g>
	<g>
		<g>
			<path class="st0" d="M28.6,14.91h-3.14c-0.26,0-0.48-0.22-0.48-0.48v-2.81c0-0.27,0.21-0.49,0.48-0.49h3.14
				c0.26,0,0.48,0.22,0.48,0.49v2.81C29.08,14.69,28.86,14.91,28.6,14.91z M25.93,13.94h2.19V12.1h-2.19V13.94z"/>
		</g>
	</g>
</g>
<g>
	<g>
		<g>
			<path class="st0" d="M6.37,20.12H3.22c-0.26,0-0.48-0.22-0.48-0.48v-2.81c0-0.27,0.21-0.49,0.48-0.49h3.14
				c0.26,0,0.48,0.22,0.48,0.49v2.81C6.84,19.9,6.63,20.12,6.37,20.12z M3.7,19.15h2.19v-1.84H3.7V19.15z"/>
		</g>
	</g>
</g>
<g>
	<g>
		<g>
			<path class="st0" d="M11.93,20.12H8.78c-0.26,0-0.48-0.22-0.48-0.48v-2.81c0-0.27,0.21-0.49,0.48-0.49h3.14
				c0.26,0,0.48,0.22,0.48,0.49v2.81C12.4,19.9,12.19,20.12,11.93,20.12z M9.26,19.15h2.19v-1.84H9.26V19.15z"/>
		</g>
	</g>
</g>
<g>
	<g>
		<g>
			<path class="st0" d="M17.48,20.12h-3.14c-0.26,0-0.48-0.22-0.48-0.48v-2.81c0-0.27,0.21-0.49,0.48-0.49h3.14
				c0.26,0,0.48,0.22,0.48,0.49v2.81C17.96,19.9,17.75,20.12,17.48,20.12z M14.81,19.15h2.19v-1.84h-2.19V19.15z"/>
		</g>
	</g>
</g>
<g>
	<g>
		<g>
			<path class="st0" d="M23.04,20.12H19.9c-0.26,0-0.48-0.22-0.48-0.48v-2.81c0-0.27,0.21-0.49,0.48-0.49h3.14
				c0.26,0,0.48,0.22,0.48,0.49v2.81C23.52,19.9,23.3,20.12,23.04,20.12z M20.37,19.15h2.19v-1.84h-2.19V19.15z"/>
		</g>
	</g>
</g>
<g>
	<g>
		<g>
			<path class="st0" d="M28.6,20.12h-3.14c-0.26,0-0.48-0.22-0.48-0.48v-2.81c0-0.27,0.21-0.49,0.48-0.49h3.14
				c0.26,0,0.48,0.22,0.48,0.49v2.81C29.08,19.9,28.86,20.12,28.6,20.12z M25.93,19.15h2.19v-1.84h-2.19V19.15z"/>
		</g>
	</g>
</g>
<g>
	<g>
		<g>
			<path class="st0" d="M6.37,25.33H3.22c-0.26,0-0.48-0.22-0.48-0.48v-2.81c0-0.27,0.21-0.48,0.48-0.48h3.14
				c0.26,0,0.48,0.22,0.48,0.48v2.81C6.84,25.11,6.63,25.33,6.37,25.33z M3.7,24.36h2.19v-1.84H3.7V24.36z"/>
		</g>
	</g>
</g>
<g>
	<g>
		<g>
			<path class="st0" d="M11.93,25.33H8.78c-0.26,0-0.48-0.22-0.48-0.48v-2.81c0-0.27,0.21-0.48,0.48-0.48h3.14
				c0.26,0,0.48,0.22,0.48,0.48v2.81C12.4,25.11,12.19,25.33,11.93,25.33z M9.26,24.36h2.19v-1.84H9.26V24.36z"/>
		</g>
	</g>
</g>
<g>
	<g>
		<g>
			<path class="st0" d="M17.48,25.33h-3.14c-0.26,0-0.48-0.22-0.48-0.48v-2.81c0-0.27,0.21-0.48,0.48-0.48h3.14
				c0.26,0,0.48,0.22,0.48,0.48v2.81C17.96,25.11,17.75,25.33,17.48,25.33z M14.81,24.36h2.19v-1.84h-2.19V24.36z"/>
		</g>
	</g>
</g>
<g>
	<g>
		<g>
			<path class="st0" d="M23.04,25.33H19.9c-0.26,0-0.48-0.22-0.48-0.48v-2.81c0-0.27,0.21-0.48,0.48-0.48h3.14
				c0.26,0,0.48,0.22,0.48,0.48v2.81C23.52,25.11,23.3,25.33,23.04,25.33z M20.37,24.36h2.19v-1.84h-2.19V24.36z"/>
		</g>
	</g>
</g>
<g>
	<g>
		<g>
			<path class="st0" d="M28.6,25.33h-3.14c-0.26,0-0.48-0.22-0.48-0.48v-2.81c0-0.27,0.21-0.48,0.48-0.48h3.14
				c0.26,0,0.48,0.22,0.48,0.48v2.81C29.08,25.11,28.86,25.33,28.6,25.33z M25.93,24.36h2.19v-1.84h-2.19V24.36z"/>
		</g>
	</g>
</g>
</svg>
